<svg width="75" height="50" viewBox="0 0 75 50" fill="none" xmlns="http://www.w3.org/2000/svg">
<path d="M65.1049 21.9243L54.5523 50H47.3633L35.0291 22.7238L23.2587 50H16.0697L0 9.12097H9.79687L19.7347 33.2255L30.1659 9.12097H39.7513L50.8873 33.3665L56.0251 19.8748C56.5688 20.3662 57.1786 20.8019 57.8503 21.168C60.1621 22.4282 62.7676 22.6251 65.1049 21.9243Z" fill="black"/>
<path d="M73.7871 24.0751L71.1072 19.5284C71.9539 18.4066 72.5744 17.1258 72.9295 15.7508C74.4088 10.0245 70.9533 4.16205 65.2266 2.68273C59.5002 1.20349 53.6378 4.65891 52.1586 10.3853C50.6793 16.112 54.1347 21.9744 59.8611 23.4537C61.3853 23.8474 62.9529 23.9014 64.4761 23.6201L67.0761 28.0317C67.6047 28.9285 68.4501 29.5652 69.4579 29.8256C70.4658 30.0859 71.5146 29.9381 72.4112 29.4091C73.3066 28.8816 73.9434 28.0358 74.2037 27.028C74.4635 26.0208 74.3161 24.972 73.7871 24.0751ZM71.299 27.5252C70.8929 27.7648 70.428 27.8168 70.0047 27.7075C69.5815 27.5981 69.2002 27.3276 68.9603 26.9211L65.5137 21.0726C63.9331 21.6607 62.1644 21.7893 60.4082 21.3357C55.8421 20.1562 53.0971 15.4985 54.2766 10.9324C55.4561 6.36635 60.1134 3.62123 64.6795 4.80073C69.2456 5.98024 71.991 10.6376 70.8115 15.2037C70.3948 16.8169 69.5423 18.2016 68.4143 19.2681L71.903 25.1869C72.3822 25.9994 72.1117 27.0464 71.299 27.5252Z" fill="black"/>
<path d="M64.0716 7.15461C60.8116 6.3125 57.474 8.27977 56.6318 11.5401C55.7896 14.8004 57.7569 18.138 61.0168 18.9802C64.2771 19.8224 67.6148 17.8551 68.457 14.5948C69.2992 11.3344 67.3319 7.99682 64.0716 7.15461ZM61.564 16.8621C59.4717 16.3217 58.2092 14.1798 58.7498 12.0872C59.2904 9.99462 61.4322 8.73215 63.5245 9.27262C65.6171 9.81318 66.8795 11.9551 66.339 14.0476C65.7984 16.1402 63.6565 17.4027 61.564 16.8621Z" fill="#FBB130"/>
</svg>
